<svg xmlns="http://www.w3.org/2000/svg" xmlns:xlink="http://www.w3.org/1999/xlink" version="1.1" id="Your_Icon" x="0px" y="0px" width="100px" height="100px" viewBox="0 0 100 100" enable-background="new 0 0 100 100" xml:space="preserve">
<g>
	<path d="M90.627,20.306H68.575c-0.298-0.943-0.701-2.016-1.239-3.09c-2.126-4.24-4.417-6.031-8.327-6.031   c-3.026,0-6.12,1.868-7.245,6.252c-0.256,0.996-0.426,1.984-0.542,2.869H9.374c-5.092,0-9.233,4.141-9.233,9.234v50.044   c0,5.09,4.142,9.232,9.233,9.232h81.253c5.091,0,9.232-4.143,9.232-9.232V29.54C99.859,24.447,95.718,20.306,90.627,20.306z    M94.055,29.54v6.865H53.23V26.112h37.396C92.517,26.112,94.055,27.649,94.055,29.54z M59.009,13.405   c4.581,0,6.461,3.902,7.337,6.901H53.428C53.99,16.834,55.734,13.405,59.009,13.405z M9.374,26.112h41.624v10.292H5.947V29.54   C5.947,27.649,7.483,26.112,9.374,26.112z M5.947,79.584V38.527h42.378v6.958v0.003v0.004h0.004   c0.359,0.682,0.572,1.044,0.572,1.044h0.471l2.199,2.198l0.028,0.028c0.017,0.017,0.04,0.026,0.06,0.042   c0.196,0.153,0.454,0.18,0.673,0.079c0.003-0.001,0.005-0.001,0.007-0.002c0.062-0.031,0.127-0.067,0.18-0.119l2.225-2.226h0.511   c0,0,0.236-0.362,0.631-1.044h0.002v-0.004c0.029-0.052,0.015-4.62,0.006-6.96h38.163v30.023H66.604v-7.5h3.638v-2.124H29.758   v2.124h3.639V83.01H9.374C7.483,83.01,5.947,81.472,5.947,79.584z M74.21,73.886v5.582H58.138v-5.582H74.21z M65.087,68.551H52.792   L43.844,83.01h-8.931V61.051h30.174V68.551z M81.091,78.31v-3.391h3.391v3.391H81.091z"/>
	<rect x="16.718" y="55.443" width="66.564" height="2.273"/>
</g>
</svg>